<svg xmlns="http://www.w3.org/2000/svg" xmlns:xlink="http://www.w3.org/1999/xlink" width="500" zoomAndPan="magnify" viewBox="0 0 375 374.999991" height="500" preserveAspectRatio="xMidYMid meet" version="1.0"><defs><clipPath id="34879af6bd"><path d="M 123.035156 156.222656 L 260.457031 156.222656 L 260.457031 275.074219 L 123.035156 275.074219 Z M 123.035156 156.222656 " clip-rule="nonzero"/></clipPath><clipPath id="f6ae0f0fa1"><path d="M 114.207031 99.574219 L 255 99.574219 L 255 269 L 114.207031 269 Z M 114.207031 99.574219 " clip-rule="nonzero"/></clipPath></defs><g clip-path="url(#34879af6bd)"><path fill="#ffde59" d="M 260.789062 156.363281 L 238.058594 156.363281 L 238.058594 275.398438 L 260.789062 275.398438 Z M 222.511719 182.289062 L 199.789062 182.289062 L 199.789062 275.398438 L 222.511719 275.398438 Z M 184.242188 201.25 L 161.519531 201.25 L 161.519531 275.398438 L 184.242188 275.398438 Z M 145.972656 275.398438 L 123.25 275.398438 L 123.25 215.601562 L 145.972656 215.601562 L 145.972656 275.398438 " fill-opacity="1" fill-rule="nonzero"/></g><g clip-path="url(#f6ae0f0fa1)"><path fill="#0f0e0c" d="M 244.007812 104.445312 C 234.4375 118.9375 217.800781 138.390625 191.421875 152.707031 C 164.933594 167.09375 139.390625 170.503906 121.070312 170.503906 C 119.097656 170.503906 117.230469 170.46875 115.4375 170.398438 C 114.734375 170.363281 114.207031 169.800781 114.242188 169.097656 C 114.277344 168.394531 114.875 167.902344 115.546875 167.902344 C 133.695312 168.605469 161.414062 166.179688 190.257812 150.527344 C 216.816406 136.101562 233.308594 116.371094 242.632812 102.054688 L 221.351562 102.054688 C 220.648438 102.054688 220.121094 101.488281 220.121094 100.820312 C 220.121094 100.152344 220.6875 99.589844 221.351562 99.589844 L 245.269531 99.589844 C 245.972656 99.589844 246.5 100.152344 246.5 100.820312 L 246.5 125.128906 C 246.5 125.832031 245.941406 126.359375 245.269531 126.359375 C 244.605469 126.359375 244.039062 125.796875 244.039062 125.128906 L 244.039062 104.445312 Z M 251.777344 266.183594 L 231.550781 266.183594 L 231.550781 149.644531 L 251.777344 149.644531 Z M 253.011719 147.148438 L 230.289062 147.148438 C 229.585938 147.148438 229.058594 147.710938 229.058594 148.378906 L 229.058594 267.414062 C 229.058594 268.117188 229.617188 268.644531 230.289062 268.644531 L 253.011719 268.644531 C 253.714844 268.644531 254.242188 268.082031 254.242188 267.414062 L 254.242188 148.414062 C 254.28125 147.710938 253.714844 147.148438 253.011719 147.148438 Z M 213.507812 266.183594 L 193.28125 266.183594 L 193.28125 175.570312 L 213.507812 175.570312 Z M 214.738281 173.074219 L 192.019531 173.074219 C 191.316406 173.074219 190.789062 173.636719 190.789062 174.304688 L 190.789062 267.414062 C 190.789062 268.117188 191.347656 268.644531 192.019531 268.644531 L 214.738281 268.644531 C 215.441406 268.644531 215.96875 268.082031 215.96875 267.414062 L 215.96875 174.304688 C 216.003906 173.636719 215.441406 173.074219 214.738281 173.074219 Z M 175.238281 266.183594 L 155.011719 266.183594 L 155.011719 194.53125 L 175.238281 194.53125 Z M 176.472656 192.03125 L 153.742188 192.03125 C 153.039062 192.03125 152.511719 192.597656 152.511719 193.265625 L 152.511719 267.414062 C 152.511719 268.117188 153.078125 268.644531 153.742188 268.644531 L 176.472656 268.644531 C 177.175781 268.644531 177.703125 268.082031 177.703125 267.414062 L 177.703125 193.265625 C 177.734375 192.597656 177.175781 192.03125 176.472656 192.03125 Z M 136.96875 266.183594 L 116.742188 266.183594 L 116.742188 208.882812 L 136.96875 208.882812 Z M 138.199219 206.386719 L 115.476562 206.386719 C 114.773438 206.386719 114.242188 206.949219 114.242188 207.617188 L 114.242188 267.414062 C 114.242188 268.117188 114.808594 268.644531 115.476562 268.644531 L 138.199219 268.644531 C 138.902344 268.644531 139.429688 268.082031 139.429688 267.414062 L 139.429688 207.617188 C 139.464844 206.949219 138.902344 206.386719 138.199219 206.386719 " fill-opacity="1" fill-rule="nonzero"/></g></svg>