<?xml version="1.0" encoding="utf-8"?>
<!-- Generator: Adobe Illustrator 19.2.1, SVG Export Plug-In . SVG Version: 6.00 Build 0)  -->
<svg version="1.1" id="layer" xmlns="http://www.w3.org/2000/svg" xmlns:xlink="http://www.w3.org/1999/xlink" x="0px" y="0px"
	 viewBox="0 0 652 652" style="enable-background:new 0 0 652 652;" xml:space="preserve">
<style type="text/css">
	.st0{fill:#002D5C;}
	.st1{fill:#8E9090;}
</style>
<g>
	<path class="st0" d="M190.5,247.3c-7.6-9.6-17.2-17-28.8-22.1c-11.6-5.1-26.9-7.7-45.8-7.7H20v208.9h95.9c11.5,0,24.3-1.9,38.5-5.7
		c10.3-2.8,20-8.3,29.1-16.6c9-8.3,16.1-18.6,21.2-30.9c3.4-8.4,5.7-19.2,6.8-32.2c-20.5,0.7-42.3,2-65.4,3.8
		c-0.3,2.3-0.6,7.2-3.5,13.8c-3.2,7.5-7.7,12.7-13.4,15.7c-5.7,3-15.3,4.5-28.8,4.5H84.4V264.6h16.1c16.7,0,28.7,4.1,35.9,12.3
		c7.1,8,10.6,22.7,10.8,44.1c22.6-2.2,44.2-4,64.7-5.5c-0.4-12.1-2-23.7-4.9-34.7C203.6,268,198.1,256.9,190.5,247.3"/>
	<path class="st0" d="M308.5,286c-11.4-2.4-18.6-4.9-21.7-7.7c-3.1-2.7-4.7-5.6-4.7-9c0-4.6,1.9-8.4,5.7-11.6
		c3.8-3.2,9.5-4.8,17.1-4.8c9.2,0,16.4,2.1,21.6,6.4c5.2,4.3,8.6,11.1,10.3,20.5l60.8-3.6c-2.7-21.7-11-37.5-25.1-47.4
		c-14.1-9.9-34.5-14.9-61.3-14.9c-21.8,0-39,2.7-51.5,8.2c-12.5,5.5-21.9,13-28.2,22.5c-6.2,9.6-9.4,19.7-9.4,30.4
		c0,15.5,5.6,28.4,16.6,38.7c55.2-3.1,102.5-3.3,143.1-1.4c-3.7-2.9-7.9-5.6-12.7-8C357,298.2,336.7,292.1,308.5,286"/>
	<path class="st0" d="M341.4,367.4c0,5.7-2.5,10.7-7.5,15c-5,4.3-12.1,6.5-21.3,6.5c-12.4,0-21.9-4.2-28.5-12.7
		c-4.1-5.2-6.8-12.8-8.1-22.8l-61.3,3.9c1.8,21.1,9.5,38.5,23.2,52.2c13.7,13.7,38.3,20.5,73.9,20.5c20.2,0,37-2.9,50.3-8.8
		c13.3-5.8,23.7-14.4,31.1-25.7c7.4-11.3,11.1-23.6,11.1-37c0-2.1-0.1-4.1-0.3-6.1c-27.8-5.5-61.3-9.6-101.7-11.3
		c16.7,3.7,27.5,7.7,32.1,11.9C339,357.1,341.4,362,341.4,367.4"/>
	<path class="st0" d="M457.7,426.4l10.5-34.5l5.7-18.6c-14.8-6.5-33-12.6-55.5-17.9l-26.7,70.9H457.7z"/>
	<path class="st0" d="M541.4,217.5h-71l-37.3,98.8c20.7,2.3,39.1,5.2,55.5,8.6l16.3-53.3l18.7,62.2c36.9,11.3,60.5,25.6,75.9,39.8
		L541.4,217.5z"/>
	<path class="st1" d="M549.9,426.6c-49.8-119.6-397.1-95.7-444.9-88.4c-4.1,0.6-5.4-2.6-0.2-3.3c50-6.5,479.2-61.8,515.2,91.5
		L549.9,426.6z"/>
</g>
</svg>
