<?xml version="1.0" standalone="no"?>
<!DOCTYPE svg PUBLIC "-//W3C//DTD SVG 20010904//EN"
 "http://www.w3.org/TR/2001/REC-SVG-20010904/DTD/svg10.dtd">
<svg version="1.0" xmlns="http://www.w3.org/2000/svg"
 width="48.000000pt" height="48.000000pt" viewBox="0 0 48.000000 48.000000"
 preserveAspectRatio="xMidYMid meet">

<g transform="translate(0.000000,48.000000) scale(0.100000,-0.100000)"
fill="#000000" stroke="none">
<path d="M180 434 c-14 -3 -40 -10 -57 -15 l-33 -11 0 -103 c0 -57 4 -115 9
-129 11 -27 124 -126 145 -126 7 0 43 28 80 63 l66 62 0 117 0 116 -31 11
c-37 13 -143 21 -179 15z m27 -75 l32 -32 36 32 c20 17 47 31 60 31 25 0 25 0
25 -99 0 -92 -2 -102 -25 -128 l-24 -28 -1 89 c0 88 0 89 -20 71 -13 -12 -20
-31 -20 -57 0 -36 -2 -38 -30 -38 -28 0 -30 2 -30 38 0 26 -7 45 -20 57 -20
18 -20 17 -20 -71 l-1 -89 -24 28 c-23 26 -25 36 -25 128 l0 99 27 0 c17 0 39
-12 60 -31z"/>
</g>
</svg>
