<svg xmlns="http://www.w3.org/2000/svg" data-name="Livello 1" viewBox="0 0 100 125" x="0px" y="0px"><title>Tavola disegno 159</title><path d="M79.345,49.90295a1.99625,1.99625,0,0,0-1.19983-2.08483,2.3272,2.3272,0,0,0-1.20019-.31519c-17.95545.01758-35.9065.49976-53.86182.51733A2.18888,2.18888,0,0,0,20.894,49.60571a2.5452,2.5452,0,0,0-.21093.81458c-.29346,3.5758,2.60058,7.23474,4.87866,9.67419,2.69629,2.88721,6.16919,5.35144,10.1383,5.87061a15.78729,15.78729,0,0,0,1.563,3.25232,12.57667,12.57667,0,0,0,12.80579,5.85595A17.12987,17.12987,0,0,0,63.355,65.49841C71.00586,64.01074,78.80359,58.05835,79.345,49.90295ZM28.95581,56.70032a17.1126,17.1126,0,0,1-2.91846-3.89881q4.49324-.01647,8.98633-.05725a42.45882,42.45882,0,0,0-.33838,8.10388A15.13918,15.13918,0,0,1,28.95581,56.70032ZM48.681,70.428c-9.74158.5625-9.62854-10.65967-8.84558-17.7356q3.74377-.04523,7.48755-.09619v7.05737c0,3.08863,4.8,3.09375,4.8,0v-7.119q3.91479-.05421,7.83-.10047a2.45828,2.45828,0,0,0,.06433.98023C62.0874,61.22266,57.30688,69.93005,48.681,70.428Zm16.369-10.28467a19.34541,19.34541,0,0,0-.35278-7.76233q4.64246-.04669,9.28515-.0592C72.58276,55.91113,68.81348,58.77856,65.05005,60.14331Z"/><path d="M31.792,39.50317a2.22607,2.22607,0,0,0,.86426.17383,3.53559,3.53559,0,0,0,2.43555-1.21972,1.00112,1.00112,0,0,0,.29882-.72266,9.5397,9.5397,0,0,0,2.32129-6.31348,4.23559,4.23559,0,0,0-3.41308-4.13867,3.62968,3.62968,0,0,0-3.23242.56836c-1.61426,1.28223-1.7959,3.877-1.792,5.7168C29.27441,33.61646,29.35352,38.48364,31.792,39.50317Z"/><path d="M60.50586,37.08618a.99894.99894,0,0,0,.36328.86621l.04395.03614a3.767,3.767,0,0,0,1.81445,1.88183,2.13724,2.13724,0,0,0,.76758.14258,2.779,2.779,0,0,0,1.99414-.97168c.01855-.01953.03711-.03906.05371-.05957l.01074-.00977c2.55371-2.31738,3.3252-5.31347,2.06543-8.01269-1.94141-4.15527-4.30957-3.65039-5.23437-3.24024-2.26856,1.00391-2.74415,4.33594-2.668,6.14844A12.94729,12.94729,0,0,0,60.50586,37.08618Z"/><text x="0" y="115" fill="#000000" font-size="5px" font-weight="bold" font-family="'Helvetica Neue', Helvetica, Arial-Unicode, Arial, Sans-serif">Created by ester barbato</text><text x="0" y="120" fill="#000000" font-size="5px" font-weight="bold" font-family="'Helvetica Neue', Helvetica, Arial-Unicode, Arial, Sans-serif">from the Noun Project</text></svg>