<svg xmlns="http://www.w3.org/2000/svg" xmlns:xlink="http://www.w3.org/1999/xlink" width="100" zoomAndPan="magnify" viewBox="0 0 75 93.749996" height="125" preserveAspectRatio="xMidYMid meet" version="1.0"><path fill="#ffffff" d="M 59.449219 44.808594 C 59.492188 44.476562 59.429688 44.167969 59.261719 43.878906 C 59.097656 43.589844 58.859375 43.378906 58.554688 43.25 C 58.273438 43.085938 57.976562 43.007812 57.65625 43.011719 C 44.222656 43.027344 30.796875 43.386719 17.367188 43.398438 C 16.988281 43.386719 16.648438 43.488281 16.34375 43.710938 C 16.035156 43.929688 15.832031 44.222656 15.730469 44.585938 C 15.640625 44.78125 15.589844 44.984375 15.570312 45.195312 C 15.351562 47.871094 17.515625 50.605469 19.21875 52.429688 C 21.238281 54.589844 23.835938 56.433594 26.804688 56.824219 C 27.101562 57.679688 27.488281 58.488281 27.972656 59.253906 C 28.460938 60.054688 29.058594 60.769531 29.757812 61.390625 C 30.460938 62.015625 31.238281 62.519531 32.089844 62.910156 C 32.945312 63.300781 33.835938 63.558594 34.765625 63.683594 C 35.699219 63.804688 36.625 63.789062 37.550781 63.636719 C 38.613281 63.5 39.640625 63.238281 40.636719 62.84375 C 41.632812 62.453125 42.5625 61.945312 43.433594 61.320312 C 44.300781 60.691406 45.078125 59.96875 45.765625 59.148438 C 46.449219 58.328125 47.027344 57.4375 47.488281 56.472656 C 53.210938 55.359375 59.046875 50.90625 59.449219 44.808594 Z M 21.757812 49.890625 C 20.890625 49.023438 20.164062 48.050781 19.574219 46.976562 C 21.816406 46.96875 24.058594 46.953125 26.296875 46.933594 C 26.019531 48.945312 25.933594 50.964844 26.042969 52.996094 C 24.367188 52.304688 22.9375 51.269531 21.757812 49.890625 Z M 36.511719 60.160156 C 29.226562 60.582031 29.3125 52.1875 29.898438 46.894531 C 31.765625 46.871094 33.628906 46.847656 35.496094 46.824219 L 35.496094 52.101562 C 35.496094 54.410156 39.089844 54.414062 39.089844 52.101562 L 39.089844 46.777344 C 41.039062 46.75 42.992188 46.722656 44.945312 46.699219 C 44.910156 46.949219 44.925781 47.191406 44.992188 47.433594 C 46.542969 53.273438 42.964844 59.789062 36.511719 60.160156 Z M 48.757812 52.46875 C 49.066406 50.515625 48.976562 48.578125 48.492188 46.660156 C 50.808594 46.636719 53.125 46.625 55.4375 46.617188 C 54.390625 49.300781 51.574219 51.445312 48.757812 52.46875 Z M 48.757812 52.46875 " fill-opacity="1" fill-rule="nonzero"/><path fill="#ffffff" d="M 23.878906 37.027344 C 24.085938 37.117188 24.300781 37.160156 24.527344 37.160156 C 25.261719 37.109375 25.867188 36.804688 26.347656 36.246094 C 26.5 36.097656 26.574219 35.917969 26.570312 35.707031 C 27.136719 35.050781 27.570312 34.316406 27.871094 33.503906 C 28.167969 32.6875 28.316406 31.851562 28.308594 30.984375 C 28.308594 30.617188 28.246094 30.261719 28.121094 29.917969 C 27.996094 29.574219 27.816406 29.261719 27.585938 28.980469 C 27.351562 28.699219 27.078125 28.460938 26.765625 28.273438 C 26.449219 28.085938 26.113281 27.957031 25.753906 27.886719 C 25.339844 27.761719 24.921875 27.734375 24.496094 27.8125 C 24.070312 27.886719 23.683594 28.054688 23.335938 28.3125 C 22.128906 29.273438 21.996094 31.210938 21.996094 32.589844 C 21.996094 32.625 22.054688 36.265625 23.878906 37.027344 Z M 23.878906 37.027344 " fill-opacity="1" fill-rule="nonzero"/><path fill="#ffffff" d="M 45.359375 35.222656 C 45.332031 35.484375 45.425781 35.699219 45.628906 35.867188 L 45.664062 35.894531 C 45.941406 36.53125 46.394531 37 47.019531 37.304688 C 47.203125 37.375 47.394531 37.410156 47.59375 37.410156 C 48.195312 37.382812 48.695312 37.140625 49.085938 36.683594 C 49.101562 36.667969 49.113281 36.652344 49.125 36.636719 L 49.132812 36.632812 C 51.042969 34.898438 51.621094 32.65625 50.679688 30.636719 C 49.226562 27.53125 47.457031 27.90625 46.765625 28.214844 C 45.066406 28.964844 44.710938 31.457031 44.769531 32.8125 C 44.863281 33.640625 45.058594 34.445312 45.359375 35.222656 Z M 45.359375 35.222656 " fill-opacity="1" fill-rule="nonzero"/></svg>