<?xml version="1.0" standalone="no"?>
<!DOCTYPE svg PUBLIC "-//W3C//DTD SVG 20010904//EN"
 "http://www.w3.org/TR/2001/REC-SVG-20010904/DTD/svg10.dtd">
<svg version="1.0" xmlns="http://www.w3.org/2000/svg"
 width="5556.000000pt" height="5556.000000pt" viewBox="0 0 5556.000000 5556.000000"
 preserveAspectRatio="xMidYMid meet">

<g transform="translate(0.000000,5556.000000) scale(0.100000,-0.100000)"
fill="#000000" stroke="none">
<path d="M21689 37739 c-132 -28 -159 -198 -45 -283 25 -19 44 -21 204 -24
154 -2 181 0 211 15 64 33 97 107 81 179 -10 44 -63 101 -100 109 -39 9 -313
11 -351 4z"/>
<path d="M22889 37739 c-132 -28 -159 -198 -45 -283 25 -19 44 -21 201 -24
159 -3 177 -2 214 17 67 35 95 99 79 176 -11 47 -59 101 -98 110 -39 9 -313
11 -351 4z"/>
<path d="M24089 37739 c-132 -28 -159 -198 -45 -283 25 -19 44 -21 201 -24
160 -3 176 -2 215 18 61 31 82 71 78 147 -4 55 -8 67 -37 97 -19 20 -46 38
-61 41 -39 9 -313 11 -351 4z"/>
<path d="M25272 37733 c-43 -15 -71 -40 -88 -80 -32 -75 -7 -152 65 -200 32
-22 43 -23 205 -23 140 1 177 4 205 18 111 56 111 220 0 277 -37 20 -336 26
-387 8z"/>
<path d="M26472 37733 c-124 -42 -138 -217 -22 -282 34 -19 53 -21 207 -21
145 0 173 3 203 19 107 56 109 212 4 273 -27 16 -58 19 -195 21 -103 1 -176
-2 -197 -10z"/>
<path d="M27672 37733 c-124 -42 -139 -216 -24 -281 37 -20 52 -22 206 -22
173 0 202 6 246 49 47 44 55 136 17 191 -42 63 -66 70 -248 73 -103 1 -176 -2
-197 -10z"/>
<path d="M28872 37733 c-65 -22 -102 -74 -102 -143 0 -60 26 -107 75 -135 40
-24 49 -25 211 -25 168 0 171 0 212 27 99 64 97 206 -4 265 -27 16 -58 19
-195 21 -103 1 -176 -2 -197 -10z"/>
<path d="M30072 37733 c-65 -22 -102 -74 -102 -143 0 -61 26 -107 76 -136 42
-25 46 -25 217 -22 166 3 175 4 210 28 94 64 89 205 -9 262 -27 16 -58 19
-195 21 -103 1 -176 -2 -197 -10z"/>
<path d="M31272 37733 c-65 -22 -102 -74 -102 -145 0 -57 28 -108 76 -136 37
-21 48 -22 215 -20 169 3 177 4 212 28 94 64 89 205 -9 262 -27 16 -58 19
-195 21 -103 1 -176 -2 -197 -10z"/>
<path d="M32472 37733 c-65 -22 -102 -74 -102 -145 0 -58 28 -108 76 -135 36
-21 52 -23 203 -23 147 0 169 2 208 21 108 52 111 210 7 271 -27 16 -58 19
-195 21 -103 1 -176 -2 -197 -10z"/>
<path d="M33672 37733 c-93 -32 -133 -146 -81 -230 39 -62 76 -73 260 -73 142
0 168 3 204 20 79 38 111 149 62 220 -41 62 -64 68 -247 72 -106 2 -176 -1
-198 -9z"/>
<path d="M34872 37733 c-67 -23 -102 -74 -102 -150 0 -62 27 -106 80 -133 39
-20 55 -21 215 -18 158 3 176 5 202 24 74 55 96 147 50 214 -41 62 -64 68
-247 72 -106 2 -176 -1 -198 -9z"/>
<path d="M36079 37739 c-45 -10 -97 -64 -107 -113 -16 -77 13 -142 78 -178 31
-17 54 -18 212 -16 196 3 207 7 256 79 20 28 23 43 20 87 -5 58 -28 97 -74
124 -23 13 -61 17 -191 20 -90 2 -177 0 -194 -3z"/>
<path d="M37279 37739 c-42 -9 -95 -63 -107 -110 -11 -44 -2 -97 22 -134 18
-27 84 -65 115 -65 11 0 28 -14 40 -34 41 -66 146 -88 211 -43 65 44 75 67 75
180 0 88 -3 107 -22 138 -34 55 -71 68 -195 71 -59 2 -122 0 -139 -3z"/>
<path d="M14167 37285 c-92 -24 -181 -111 -207 -203 -6 -21 -10 -163 -10 -334
l0 -297 -307 -3 c-288 -3 -311 -4 -354 -24 -63 -30 -116 -79 -147 -138 -23
-44 -27 -63 -27 -141 0 -81 3 -95 30 -144 35 -64 91 -114 154 -137 39 -15 92
-18 336 -21 160 -2 296 -3 303 -3 9 0 12 -66 12 -299 0 -243 3 -307 15 -342
89 -253 428 -272 547 -30 22 44 23 59 28 359 l5 313 230 0 c374 -1 438 11 522
97 140 144 97 390 -85 479 l-57 28 -307 3 -308 3 0 293 c0 328 -5 360 -65 439
-65 85 -202 130 -308 102z"/>
<path d="M37400 36678 c-71 -49 -75 -61 -78 -251 -3 -164 -2 -174 20 -216 56
-106 197 -110 272 -8 19 25 21 45 24 185 4 168 -4 220 -41 260 -52 57 -139 69
-197 30z"/>
<path d="M27210 36489 c-628 -45 -1172 -534 -1288 -1157 l-17 -92 -2379 2
-2380 3 -11 70 c-49 285 -178 531 -394 745 -226 225 -481 357 -789 410 -143
25 -350 26 -483 4 -587 -100 -1059 -568 -1164 -1157 -26 -148 -17 -425 19
-561 71 -265 190 -472 385 -666 213 -212 464 -343 759 -396 l92 -17 0 -2402 0
-2402 -59 -7 c-295 -34 -600 -185 -813 -403 -96 -99 -114 -120 -177 -218 -231
-354 -289 -813 -155 -1215 100 -298 323 -579 596 -753 148 -94 363 -176 521
-198 l87 -13 0 -2377 0 -2378 -47 -6 c-535 -73 -977 -450 -1153 -984 -95 -287
-100 -599 -14 -872 68 -218 190 -416 359 -585 347 -348 811 -487 1295 -388
177 37 374 119 535 225 100 65 312 277 380 379 110 165 188 360 220 544 8 49
15 89 15 90 0 0 1071 0 2380 -2 l2380 -2 0 -28 c1 -42 35 -190 66 -278 75
-220 231 -451 410 -606 267 -232 584 -351 929 -351 698 1 1296 479 1429 1145
9 42 16 86 16 98 l0 20 2380 0 2379 0 7 -37 c58 -341 177 -576 409 -809 244
-245 536 -382 881 -414 243 -23 549 42 764 162 182 102 357 255 477 417 115
154 216 385 254 576 9 45 14 139 14 260 0 162 -3 205 -23 293 -68 304 -191
532 -402 743 -209 210 -442 336 -715 388 l-90 18 -3 2380 -2 2380 87 17 c185
35 378 117 542 229 42 28 128 103 192 167 206 205 332 433 394 713 25 110 31
371 12 492 -50 311 -181 572 -396 785 -206 205 -434 325 -723 382 l-108 21 0
2409 0 2408 29 0 c51 0 253 57 349 98 376 164 669 485 797 876 52 160 68 280
62 464 -3 89 -12 189 -22 232 -145 656 -723 1130 -1378 1131 -475 1 -919 -243
-1184 -649 -97 -147 -177 -342 -202 -492 -6 -36 -14 -75 -16 -87 l-5 -23
-2379 0 -2378 0 -12 75 c-38 233 -156 479 -323 675 -237 276 -629 474 -982
496 -45 3 -94 6 -111 7 -16 2 -73 0 -125 -4z m225 -319 c501 -57 902 -412 998
-884 16 -82 18 -107 9 -150 -6 -28 -14 -91 -17 -140 -4 -48 -17 -130 -30 -180
-106 -418 -417 -710 -857 -803 -109 -23 -344 -23 -444 0 -347 79 -621 299
-773 618 -81 171 -96 241 -95 459 0 172 2 191 27 275 115 377 402 667 763 770
148 42 268 52 419 35z m-1525 -1282 c0 -34 30 -166 56 -245 69 -211 183 -394
353 -564 215 -216 477 -353 763 -401 l68 -11 0 -2387 0 -2386 -75 -13 c-187
-31 -403 -119 -556 -226 -43 -30 -82 -55 -86 -55 -5 0 -511 503 -1126 1118
l-1117 1117 28 45 c65 104 124 255 153 395 17 79 17 343 0 420 -56 256 -160
445 -338 616 -248 238 -552 345 -902 317 -156 -12 -283 -47 -430 -120 l-123
-61 -873 873 -873 873 48 66 c135 187 235 424 257 608 l6 53 2371 2 c1338 2
2376 -1 2384 -6 6 -5 12 -17 12 -28z m7615 -63 c36 -194 128 -415 236 -562
l49 -68 -873 -873 -874 -874 -75 41 c-202 111 -426 158 -662 140 -202 -16
-385 -76 -541 -177 -252 -163 -409 -395 -482 -714 -23 -103 -23 -403 0 -506
27 -116 65 -220 112 -308 l43 -81 -1123 -1123 -1124 -1124 -68 46 c-204 137
-418 222 -612 245 -31 3 -58 9 -61 14 -3 4 -4 1079 -2 2388 l2 2381 33 0 c17
0 71 9 118 19 287 64 540 208 746 424 193 204 314 427 371 689 l26 118 2366 2
c1301 2 2368 1 2372 -2 3 -3 14 -45 23 -95z m-11185 -2597 c0 -4 -18 -31 -40
-60 -78 -103 -152 -277 -187 -438 -27 -130 -25 -373 5 -508 105 -470 439 -789
911 -867 135 -23 369 -16 482 14 159 41 302 109 415 195 l48 37 1116 -1116
c877 -877 1113 -1118 1105 -1129 -122 -177 -173 -273 -223 -417 -17 -47 -38
-126 -47 -175 -9 -49 -18 -99 -21 -112 l-4 -22 -2378 2 -2377 3 -7 60 c-63
500 -464 967 -975 1134 -65 22 -154 45 -198 52 -44 7 -81 13 -83 14 -1 1 -2
1074 -2 2385 0 1311 1 2384 2 2385 2 1 35 7 74 13 186 30 382 109 543 217
l106 72 868 -866 c477 -476 867 -869 867 -873z m11810 1661 c81 -54 187 -107
290 -146 72 -28 260 -73 303 -73 l27 0 0 -2390 0 -2390 -25 0 c-14 0 -60 -7
-103 -16 -572 -118 -1017 -576 -1119 -1149 l-17 -95 -2370 0 -2371 0 -22 113
c-12 61 -34 148 -49 192 -36 110 -123 275 -189 363 -30 40 -55 76 -55 80 0 4
499 506 1109 1116 l1109 1109 69 -50 c127 -94 298 -165 472 -198 106 -19 313
-19 424 0 173 30 364 116 503 226 485 384 585 1080 224 1575 l-57 79 866 867
c827 829 866 867 886 852 11 -8 54 -37 95 -65z m-10730 -1594 c400 -93 673
-458 647 -863 -8 -114 -27 -191 -72 -288 -97 -212 -269 -364 -503 -448 -84
-30 -93 -31 -252 -31 -132 0 -178 4 -230 19 -96 27 -236 99 -307 156 -289 233
-376 678 -203 1035 101 209 307 369 541 420 88 19 297 19 379 0z m8206 -5
c223 -56 444 -230 544 -430 131 -259 113 -577 -45 -825 -44 -68 -161 -189
-228 -234 -66 -45 -180 -97 -257 -118 -94 -26 -360 -25 -445 1 -203 62 -347
164 -448 313 -110 165 -141 272 -141 488 -1 177 16 253 91 405 39 79 62 110
138 186 79 80 103 97 195 142 147 72 225 91 386 91 99 1 150 -4 210 -19z
m-11666 -3755 c390 -86 668 -323 795 -679 46 -128 65 -237 65 -375 0 -197 -34
-339 -121 -510 -132 -259 -357 -446 -649 -539 -134 -43 -237 -55 -398 -49
-172 6 -269 30 -418 102 -229 111 -409 288 -522 511 -147 290 -147 666 -1 957
160 318 444 532 787 593 101 17 360 11 462 -11z m15239 -10 c384 -104 674
-390 777 -765 32 -118 44 -337 24 -457 -45 -284 -227 -567 -470 -732 -87 -60
-225 -124 -335 -156 -133 -39 -330 -45 -475 -15 -223 46 -412 151 -575 319
-389 399 -416 1007 -66 1445 154 191 402 337 641 376 41 6 82 13 90 15 8 2 78
2 155 0 109 -3 161 -10 234 -30z m-9295 -1227 c2 -7 11 -51 20 -98 32 -178
114 -373 220 -525 l55 -80 -1087 -1087 c-598 -599 -1091 -1088 -1097 -1088 -5
0 -30 14 -55 31 -121 82 -292 151 -453 184 -93 18 -282 21 -387 4 -465 -72
-862 -472 -955 -963 -20 -104 -26 -250 -14 -346 19 -157 95 -360 183 -489 20
-29 36 -58 36 -64 0 -13 -1750 -1767 -1762 -1767 -4 0 -44 25 -88 55 -160 109
-381 199 -558 227 l-82 12 0 2378 0 2378 23 4 c221 42 305 68 453 142 271 134
517 380 653 652 52 103 106 263 121 357 6 39 13 76 15 83 4 9 488 12 2380 12
1892 0 2376 -3 2379 -12z m7606 6 c0 -26 45 -217 66 -280 34 -103 113 -260
178 -354 28 -41 94 -119 146 -173 229 -239 480 -370 833 -431 l37 -7 0 -2374
0 -2375 -22 -4 c-13 -3 -52 -10 -88 -16 -85 -15 -257 -73 -345 -117 -60 -31
-183 -108 -250 -157 -20 -15 -65 29 -1005 969 -764 764 -981 987 -973 997 6 7
29 49 51 93 162 327 168 687 17 1003 -63 131 -135 232 -240 337 -193 192 -418
303 -684 336 -222 28 -501 -32 -695 -148 l-58 -36 -1013 1013 -1012 1012 54
72 c108 144 203 362 239 554 l18 92 2373 0 c1305 0 2373 -3 2373 -6z m-6958
-1026 c138 -92 345 -172 518 -202 l75 -12 3 -2377 2 -2377 -22 -4 c-232 -47
-369 -95 -513 -180 -368 -220 -636 -609 -699 -1013 l-12 -78 -2377 -3 c-1897
-2 -2378 0 -2381 10 -2 7 -11 52 -20 100 -36 193 -124 404 -235 558 l-61 85
884 883 883 884 68 -47 c193 -132 401 -197 630 -198 142 -1 234 13 371 58 189
62 345 157 482 294 229 227 342 491 342 799 0 246 -71 475 -210 677 l-41 60
1093 1087 1092 1087 33 -25 c18 -13 60 -43 95 -66z m3653 -1967 c-94 -124
-167 -278 -207 -438 -20 -77 -23 -112 -22 -278 0 -179 2 -197 31 -305 58 -218
157 -393 308 -545 148 -150 316 -247 524 -303 86 -23 114 -26 271 -26 191 0
241 9 407 73 90 35 231 120 309 186 l50 44 972 -972 972 -972 -58 -81 c-126
-176 -217 -403 -247 -616 l-6 -48 -2373 0 -2373 0 -21 108 c-61 305 -184 536
-401 752 -237 236 -470 352 -833 414 l-38 7 0 2374 0 2374 38 6 c87 14 232 49
297 72 101 37 248 113 340 177 l80 55 1007 -1006 1007 -1007 -34 -45z m1120
101 c244 -78 430 -239 540 -467 64 -131 79 -198 79 -340 -1 -253 -88 -454
-278 -640 -103 -101 -194 -158 -321 -201 -114 -39 -304 -46 -426 -15 -313 79
-543 325 -614 657 -26 116 -23 306 4 409 39 147 152 334 240 399 17 13 43 35
58 50 63 63 202 130 338 162 85 20 300 12 380 -14z m-7810 -107 c155 -45 320
-138 357 -201 11 -18 34 -43 53 -54 60 -37 152 -177 198 -301 69 -185 62 -431
-19 -607 -75 -164 -243 -336 -409 -419 -141 -71 -330 -111 -460 -98 -188 20
-425 136 -501 247 -15 20 -34 40 -44 43 -23 7 -120 145 -154 218 -52 113 -70
201 -69 332 1 141 21 230 83 361 102 220 298 399 510 468 97 32 103 33 246 35
103 1 135 -3 209 -24z m4085 -3360 c244 -67 464 -216 616 -418 111 -149 197
-383 209 -572 3 -50 11 -113 17 -142 9 -41 8 -69 -6 -143 -122 -666 -851
-1076 -1495 -841 -271 99 -485 295 -616 565 -85 174 -100 244 -100 466 0 160
3 197 23 275 85 337 296 594 606 741 171 81 290 104 501 99 123 -3 167 -8 245
-30z"/>
<path d="M37400 35478 c-71 -49 -75 -61 -78 -251 -3 -164 -2 -174 20 -216 56
-106 197 -110 272 -8 20 26 21 41 21 212 0 171 -1 186 -21 212 -35 48 -82 73
-134 73 -32 0 -57 -7 -80 -22z"/>
<path d="M41874 35019 c-124 -16 -231 -75 -326 -177 -69 -75 -111 -160 -133
-270 -53 -263 114 -542 373 -622 81 -25 234 -27 313 -4 194 57 342 219 384
419 77 367 -238 704 -611 654z"/>
<path d="M37400 34281 c-20 -10 -44 -36 -57 -61 -21 -40 -23 -56 -23 -203 0
-141 2 -166 20 -201 28 -57 63 -79 130 -84 45 -3 61 0 89 20 74 50 76 58 76
263 0 171 -1 186 -21 212 -53 71 -141 94 -214 54z"/>
<path d="M37400 33082 c-20 -11 -44 -37 -58 -63 -22 -42 -23 -52 -20 -216 3
-156 5 -174 24 -200 73 -98 195 -98 268 0 19 25 21 45 24 186 4 183 -4 223
-53 271 -30 29 -43 34 -92 37 -44 3 -67 -1 -93 -15z"/>
<path d="M37400 31882 c-20 -11 -44 -37 -58 -63 -22 -42 -23 -52 -20 -216 3
-156 5 -174 24 -200 73 -98 195 -98 268 0 19 25 21 45 24 186 4 183 -4 223
-53 271 -30 29 -43 34 -92 37 -44 3 -67 -1 -93 -15z"/>
<path d="M37388 30676 c-60 -42 -70 -84 -66 -279 3 -150 5 -168 24 -194 73
-98 195 -98 268 0 19 25 21 45 24 186 4 183 -4 223 -53 271 -31 30 -42 34 -98
38 -54 3 -67 0 -99 -22z"/>
<path d="M37444 29500 c-50 -11 -91 -47 -109 -93 -13 -36 -16 -74 -13 -210 3
-150 5 -168 24 -194 73 -98 195 -98 268 0 19 25 21 45 24 186 2 94 -1 174 -7
198 -12 45 -78 113 -110 113 -11 0 -25 2 -33 4 -7 2 -27 1 -44 -4z"/>
<path d="M37444 28300 c-50 -11 -91 -47 -109 -93 -13 -36 -16 -74 -13 -210 3
-150 5 -168 24 -194 64 -86 171 -98 245 -27 42 40 51 93 47 265 -3 132 -6 159
-23 187 -35 57 -105 87 -171 72z"/>
<path d="M37427 27095 c-94 -33 -109 -78 -105 -298 3 -150 5 -168 24 -194 64
-86 171 -98 245 -27 42 40 51 93 47 265 -3 132 -6 159 -23 187 -38 63 -119 92
-188 67z"/>
<path d="M37427 25896 c-91 -33 -106 -74 -107 -279 0 -175 7 -206 59 -250 86
-72 220 -31 251 77 8 28 11 96 8 197 -3 132 -6 159 -23 187 -38 64 -119 93
-188 68z"/>
<path d="M47920 25127 c-58 -28 -111 -81 -141 -143 -24 -48 -24 -54 -27 -361
l-3 -312 -307 -3 -307 -3 -57 -28 c-186 -91 -227 -331 -81 -479 83 -84 104
-88 453 -88 l299 0 3 -312 3 -313 28 -57 c112 -228 427 -221 536 11 l26 56 2
300 c1 165 3 303 3 307 0 4 141 8 313 10 l312 3 54 30 c114 63 172 187 149
317 -13 73 -39 118 -96 170 -77 69 -89 71 -430 77 l-303 6 -2 300 c-3 339 -7
358 -78 439 -60 68 -125 96 -223 96 -62 -1 -92 -6 -126 -23z"/>
<path d="M8655 19900 c-108 -23 -224 -88 -297 -166 -84 -91 -141 -236 -142
-364 -1 -162 47 -282 160 -397 213 -218 548 -219 764 -3 163 163 208 404 115
615 -57 129 -181 244 -314 292 -73 27 -216 39 -286 23z"/>
<path d="M16357 16926 c-47 -17 -71 -38 -91 -81 -35 -73 -10 -153 63 -202 l34
-23 8188 2 8188 3 27 21 c43 31 65 67 71 112 7 55 -26 123 -75 154 l-37 23
-8165 2 c-6873 2 -8171 0 -8203 -11z"/>
<path d="M15733 15989 c-74 -21 -124 -112 -104 -186 15 -53 36 -80 81 -103 39
-20 60 -20 2744 -18 l2705 3 27 21 c52 38 69 71 69 132 0 65 -25 111 -78 140
-30 16 -190 17 -2722 19 -1624 1 -2703 -2 -2722 -8z"/>
<path d="M25930 15942 c-114 -26 -167 -132 -115 -232 16 -32 59 -69 84 -72 9
-2 -3561 -5 -7934 -8 l-7950 -5 -56 -28 c-63 -31 -126 -93 -160 -159 -34 -64
-39 -203 -10 -278 28 -75 98 -152 169 -187 l57 -28 18075 0 18075 0 58 29 c64
33 124 92 159 158 20 37 23 57 23 153 0 96 -3 116 -23 153 -36 67 -98 129
-161 159 l-56 28 -3173 5 c-2649 4 -3167 7 -3142 18 42 19 72 66 78 121 6 63
-17 113 -65 145 l-39 26 -754 0 c-701 0 -755 -1 -783 -17 -101 -60 -101 -219
1 -272 l37 -20 -529 -1 -529 0 33 23 c103 68 96 217 -13 273 -24 13 -790 15
-5675 19 -3106 2 -5663 1 -5682 -3z"/>
<path d="M6240 15621 c-94 -29 -177 -101 -219 -190 -22 -47 -26 -70 -26 -146
0 -79 4 -97 29 -149 35 -72 88 -126 158 -163 l53 -28 1080 0 1080 0 48 23 c70
32 150 118 177 189 63 169 -11 363 -168 440 l-57 28 -1065 2 c-586 1 -1076 -2
-1090 -6z"/>
<path d="M47368 15612 c-147 -54 -236 -192 -226 -351 7 -126 82 -236 197 -290
l56 -26 380 0 380 0 53 28 c70 37 128 97 161 166 22 47 26 70 26 146 0 77 -4
98 -27 147 -32 69 -96 135 -163 168 l-50 25 -370 2 c-330 2 -375 1 -417 -15z"/>
<path d="M49093 15609 c-73 -28 -146 -97 -184 -174 -30 -62 -31 -68 -27 -162
3 -76 9 -108 27 -141 34 -66 97 -128 160 -159 49 -25 67 -28 151 -28 84 0 102
3 151 28 174 85 244 299 155 474 -33 65 -113 137 -182 162 -72 28 -180 27
-251 0z"/>
</g>
</svg>
